<svg id="Layer_1" data-name="Layer 1" xmlns="http://www.w3.org/2000/svg" xmlns:xlink="http://www.w3.org/1999/xlink" viewBox="0 0 1524.88 1390.05"><defs><style>.cls-1,.cls-5{fill:none;}.cls-2{clip-path:url(#clip-path);}.cls-3{fill:#ff3fb4;}.cls-4{clip-path:url(#clip-path-2);}.cls-5{stroke:#221f1f;stroke-linecap:round;stroke-linejoin:round;stroke-width:2.05px;}</style><clipPath id="clip-path" transform="translate(386.03 314.63)"><path class="cls-1" d="M682.83,117.19c156.22,156.23,156.22,409.41,0,565.63s-409.46,156.28-565.69.05-156.2-409.52,0-565.73S526.64-39,682.83,117.19Z"/></clipPath><clipPath id="clip-path-2" transform="translate(386.03 314.63)"><path class="cls-1" d="M10.8,399c0-214.42,173.77-388.2,388.2-388.2S787.29,184.57,787.29,399,613.42,787.3,399,787.3,10.8,613.42,10.8,399Z"/></clipPath></defs><title>spiral</title><g class="cls-2"><polygon class="cls-3" points="654.7 1368.51 1489.69 533.55 1511.23 555.1 676.24 1390.05 654.7 1368.51"/><polygon class="cls-3" points="610.29 1324.1 1445.25 489.13 1466.82 510.66 631.82 1345.66 610.29 1324.1"/><polygon class="cls-3" points="565.77 1279.59 1400.75 444.62 1422.32 466.18 587.32 1301.14 565.77 1279.59"/><polygon class="cls-3" points="521.34 1235.15 1356.32 400.19 1377.9 421.75 542.9 1256.73 521.34 1235.15"/><polygon class="cls-3" points="476.83 1190.65 1311.82 355.68 1333.4 377.24 498.4 1212.24 476.83 1190.65"/><polygon class="cls-3" points="432.4 1146.22 1267.4 311.26 1288.97 332.82 453.98 1167.82 432.4 1146.22"/><polygon class="cls-3" points="387.93 1101.74 1222.9 266.78 1244.46 288.3 409.47 1123.3 387.93 1101.74"/><polygon class="cls-3" points="343.49 1057.32 1178.49 222.36 1200.04 243.89 365.05 1078.88 343.49 1057.32"/><polygon class="cls-3" points="298.98 1012.79 1133.98 177.84 1155.54 199.39 320.55 1034.37 298.98 1012.79"/><rect class="cls-3" x="-293.61" y="231.8" width="1180.85" height="30.51" transform="translate(298.27 596.87) rotate(-45)"/><polygon class="cls-3" points="210.05 923.87 1045.04 88.9 1066.61 110.47 231.62 945.46 210.05 923.87"/><polygon class="cls-3" points="165.62 879.44 1000.62 44.48 1022.2 66.04 187.2 901.04 165.62 879.44"/><rect class="cls-3" x="-427.04" y="98.38" width="1180.83" height="30.49" transform="translate(353.54 463.44) rotate(-45)"/></g><g class="cls-4"><path class="cls-5" d="M-385,505.18c2.94,26.06,43.75,26.06,47.58-1.07,4.15-27.13,43.75-27.13,47.6,0,3,26,43.75,27.13,47.57,0,4.17-27.13,43.75-27.13,47.59,0,3,26,43.77,27.13,47.6,0,4.16-27.13,43.75-27.13,47.61,0,2.93,26,43.74,27.13,47.57,0,4.13-27.13,43.75-27.13,47.57,0,3,26,43.75,27.13,47.6,0C47.41,477,87,477,90.87,504.12c3,26,43.75,27.13,47.6,0,4.13-27.13,43.74-27.13,47.57,0,3,26,43.75,27.13,47.61,0,4.13-27.13,43.75-27.13,47.57,0,3,26,43.74,27.13,47.57,0,4.15-27.13,43.75-27.13,47.6,0,2.94,26,43.75,27.13,47.57,0,4.16-27.13,43.75-27.13,47.61,0,2.94,26,43.75,27.13,47.57,0,4.16-27.13,43.74-27.13,47.57,0,3,26,43.75,27.13,47.61,0,4.13-27.13,43.74-27.13,47.6,0,2.94,26,43.75,27.13,47.57,0,4.13-27.13,43.75-27.13,47.58,0,3,26,43.74,27.13,47.6,0,4.12-27.13,43.75-27.13,47.58,0,3,26,43.75,27.13,47.6,0,4.13-27.13,43.71-27.13,47.57,0,3,26,43.75,27.13,47.61,0,4.13-27.13,43.72-27.13,47.57,0,2.94,26,43.75,27.13,47.57,0,4.16-27.13,43.75-28.2,47.61-1.07" transform="translate(386.03 314.63)"/><path class="cls-5" d="M-385,575.1c2.94,26,43.75,26,47.58-1.1,4.15-27.13,43.75-27.13,47.6,0,3,26,43.75,27.13,47.57,0,4.17-27.13,43.75-27.13,47.59,0,3,26,43.77,27.13,47.6,0,4.16-27.13,43.75-27.13,47.61,0,2.93,26,43.74,27.13,47.57,0,4.13-27.13,43.75-27.13,47.57,0,3,26,43.75,27.13,47.6,0,4.13-27.13,43.75-27.13,47.58,0,3,26,43.75,27.13,47.6,0,4.13-27.13,43.74-27.13,47.57,0,3,26,43.75,27.13,47.61,0,4.13-27.13,43.75-27.13,47.57,0,3,26,43.74,27.13,47.57,0,4.15-27.13,43.75-27.13,47.6,0,2.94,26,43.75,27.13,47.57,0,4.16-27.13,43.75-27.13,47.61,0,2.94,26,43.75,27.13,47.57,0,4.16-27.13,43.74-27.13,47.57,0,3,26,43.75,27.13,47.61,0,4.13-27.13,43.74-27.13,47.6,0,2.94,26,43.75,27.13,47.57,0,4.13-27.13,43.75-27.13,47.58,0,3,26,43.74,27.13,47.6,0,4.12-27.13,43.75-27.13,47.58,0,3,26,43.75,27.13,47.6,0,4.13-27.13,43.71-27.13,47.57,0,3,26,43.75,27.13,47.61,0,4.13-27.13,43.72-27.13,47.57,0,2.94,26,43.75,27.13,47.57,0,4.16-27.13,43.75-28.2,47.61-1.07" transform="translate(386.03 314.63)"/><path class="cls-5" d="M-385,645c2.94,26,43.75,26,47.58-1.06,4.15-27.13,43.75-27.13,47.6,0,3,26,43.75,27.1,47.57,0,4.17-27.13,43.75-27.13,47.59,0,3,26,43.77,27.1,47.6,0,4.16-27.13,43.75-27.13,47.61,0,2.93,26,43.74,27.1,47.57,0,4.13-27.13,43.75-27.13,47.57,0,3,26,43.75,27.1,47.6,0,4.13-27.13,43.75-27.13,47.58,0,3,26,43.75,27.1,47.6,0,4.13-27.13,43.74-27.13,47.57,0,3,26,43.75,27.1,47.61,0,4.13-27.13,43.75-27.13,47.57,0,3,26,43.74,27.1,47.57,0,4.15-27.13,43.75-27.13,47.6,0,2.94,26,43.75,27.1,47.57,0,4.16-27.13,43.75-27.13,47.61,0,2.94,26,43.75,27.1,47.57,0,4.16-27.13,43.74-27.13,47.57,0,3,26,43.75,27.1,47.61,0,4.13-27.13,43.74-27.13,47.6,0,2.94,26,43.75,27.1,47.57,0,4.13-27.13,43.75-27.13,47.58,0,3,26,43.74,27.1,47.6,0,4.12-27.13,43.75-27.13,47.58,0,3,26,43.75,27.1,47.6,0,4.13-27.13,43.71-27.13,47.57,0,3,26,43.75,27.1,47.61,0,4.13-27.13,43.72-27.13,47.57,0,2.94,26,43.75,27.1,47.57,0,4.16-27.13,43.75-28.21,47.61-1.11" transform="translate(386.03 314.63)"/><path class="cls-5" d="M-385,714.92c2.94,26,43.75,26,47.58-1.1,4.15-27.1,43.75-27.1,47.6,0,3,26,43.75,27.13,47.57,0,4.17-27.1,43.75-27.1,47.59,0,3,26,43.77,27.13,47.6,0,4.16-27.1,43.75-27.1,47.61,0,2.93,26,43.74,27.13,47.57,0,4.13-27.1,43.75-27.1,47.57,0,3,26,43.75,27.13,47.6,0,4.13-27.1,43.75-27.1,47.58,0,3,26,43.75,27.13,47.6,0,4.13-27.1,43.74-27.1,47.57,0,3,26,43.75,27.13,47.61,0,4.13-27.1,43.75-27.1,47.57,0,3,26,43.74,27.13,47.57,0,4.15-27.1,43.75-27.1,47.6,0,2.94,26,43.75,27.13,47.57,0,4.16-27.1,43.75-27.1,47.61,0,2.94,26,43.75,27.13,47.57,0,4.16-27.1,43.74-27.1,47.57,0,3,26,43.75,27.13,47.61,0,4.13-27.1,43.74-27.1,47.6,0,2.94,26,43.75,27.13,47.57,0,4.13-27.1,43.75-27.1,47.58,0,3,26,43.74,27.13,47.6,0,4.12-27.1,43.75-27.1,47.58,0,3,26,43.75,27.13,47.6,0,4.13-27.1,43.71-27.1,47.57,0,3,26,43.75,27.13,47.61,0,4.13-27.1,43.72-27.1,47.57,0,2.94,26,43.75,27.13,47.57,0,4.16-27.1,43.75-28.19,47.61-1.07" transform="translate(386.03 314.63)"/><path class="cls-5" d="M-385,784.81c2.94,26,43.75,26,47.58-1.07,4.15-27.13,43.75-27.13,47.6,0,3,26,43.75,27.1,47.57,0,4.17-27.13,43.75-27.13,47.59,0,3,26,43.77,27.1,47.6,0,4.16-27.13,43.75-27.13,47.61,0,2.93,26,43.74,27.1,47.57,0,4.13-27.13,43.75-27.13,47.57,0,3,26,43.75,27.1,47.6,0,4.13-27.13,43.75-27.13,47.58,0,3,26,43.75,27.1,47.6,0,4.13-27.13,43.74-27.13,47.57,0,3,26,43.75,27.1,47.61,0,4.13-27.13,43.75-27.13,47.57,0,3,26,43.74,27.1,47.57,0,4.15-27.13,43.75-27.13,47.6,0,2.94,26,43.75,27.1,47.57,0,4.16-27.13,43.75-27.13,47.61,0,2.94,26,43.75,27.1,47.57,0,4.16-27.13,43.74-27.13,47.57,0,3,26,43.75,27.1,47.61,0,4.13-27.13,43.74-27.13,47.6,0,2.94,26,43.75,27.1,47.57,0,4.13-27.13,43.75-27.13,47.58,0,3,26,43.74,27.1,47.6,0,4.12-27.13,43.75-27.13,47.58,0,3,26,43.75,27.1,47.6,0,4.13-27.13,43.71-27.13,47.57,0,3,26,43.75,27.1,47.61,0,4.13-27.13,43.72-27.13,47.57,0,2.94,26,43.75,27.1,47.57,0,4.16-27.13,43.75-28.23,47.61-1.1" transform="translate(386.03 314.63)"/><path class="cls-5" d="M-385,854.74c2.94,26,43.75,26,47.58-1.1,4.15-27.1,43.75-27.1,47.6,0,3,26,43.75,27.13,47.57,0,4.17-27.1,43.75-27.1,47.59,0,3,26,43.77,27.13,47.6,0,4.16-27.1,43.75-27.1,47.61,0,2.93,26,43.74,27.13,47.57,0,4.13-27.1,43.75-27.1,47.57,0,3,26,43.75,27.13,47.6,0,4.13-27.1,43.75-27.1,47.58,0,3,26,43.75,27.13,47.6,0,4.13-27.1,43.74-27.1,47.57,0,3,26,43.75,27.13,47.61,0,4.13-27.1,43.75-27.1,47.57,0,3,26,43.74,27.13,47.57,0,4.15-27.1,43.75-27.1,47.6,0,2.94,26,43.75,27.13,47.57,0,4.16-27.1,43.75-27.1,47.61,0,2.94,26,43.75,27.13,47.57,0,4.16-27.1,43.74-27.1,47.57,0,3,26,43.75,27.13,47.61,0,4.13-27.1,43.74-27.1,47.6,0,2.94,26,43.75,27.13,47.57,0,4.13-27.1,43.75-27.1,47.58,0,3,26,43.74,27.13,47.6,0,4.12-27.1,43.75-27.1,47.58,0,3,26,43.75,27.13,47.6,0,4.13-27.1,43.71-27.1,47.57,0,3,26,43.75,27.13,47.61,0,4.13-27.1,43.72-27.1,47.57,0,2.94,26,43.75,27.13,47.57,0,4.16-27.1,43.75-28.19,47.61-1.07" transform="translate(386.03 314.63)"/><path class="cls-5" d="M-385,924.63c2.94,26.06,43.75,26.06,47.58-1.07,4.15-27.12,43.75-27.12,47.6,0,3,26,43.75,27.13,47.57,0,4.17-27.12,43.75-27.12,47.59,0,3,26,43.77,27.13,47.6,0,4.16-27.12,43.75-27.12,47.61,0,2.93,26,43.74,27.13,47.57,0,4.13-27.12,43.75-27.12,47.57,0,3,26,43.75,27.13,47.6,0,4.13-27.12,43.75-27.12,47.58,0,3,26,43.75,27.13,47.6,0,4.13-27.12,43.74-27.12,47.57,0,3,26,43.75,27.13,47.61,0,4.13-27.12,43.75-27.12,47.57,0,3,26,43.74,27.13,47.57,0,4.15-27.12,43.75-27.12,47.6,0,2.94,26,43.75,27.13,47.57,0,4.16-27.12,43.75-27.12,47.61,0,2.94,26,43.75,27.13,47.57,0,4.16-27.12,43.74-27.12,47.57,0,3,26,43.75,27.13,47.61,0,4.13-27.12,43.74-27.12,47.6,0,2.94,26,43.75,27.13,47.57,0,4.13-27.12,43.75-27.12,47.58,0,3,26,43.74,27.13,47.6,0,4.12-27.12,43.75-27.12,47.58,0,3,26,43.75,27.13,47.6,0,4.13-27.12,43.71-27.12,47.57,0,3,26,43.75,27.13,47.61,0,4.13-27.12,43.72-27.12,47.57,0,2.94,26,43.75,27.13,47.57,0,4.16-27.12,43.75-28.23,47.61-1.1" transform="translate(386.03 314.63)"/><path class="cls-5" d="M-385,994.55c2.94,26,43.75,26,47.58-1.09,4.15-27.13,43.75-27.13,47.6,0,3,26,43.75,27.12,47.57,0,4.17-27.13,43.75-27.13,47.59,0,3,26,43.77,27.12,47.6,0,4.16-27.13,43.75-27.13,47.61,0,2.93,26,43.74,27.12,47.57,0,4.13-27.13,43.75-27.13,47.57,0,3,26,43.75,27.12,47.6,0,4.13-27.13,43.75-27.13,47.58,0,3,26,43.75,27.12,47.6,0,4.13-27.13,43.74-27.13,47.57,0,3,26,43.75,27.12,47.61,0,4.13-27.13,43.75-27.13,47.57,0,3,26,43.74,27.12,47.57,0,4.15-27.13,43.75-27.13,47.6,0,2.94,26,43.75,27.12,47.57,0,4.16-27.13,43.75-27.13,47.61,0,2.94,26,43.75,27.12,47.57,0,4.16-27.13,43.74-27.13,47.57,0,3,26,43.75,27.12,47.61,0,4.13-27.13,43.74-27.13,47.6,0,2.94,26,43.75,27.12,47.57,0,4.13-27.13,43.75-27.13,47.58,0,3,26,43.74,27.12,47.6,0,4.12-27.13,43.75-27.13,47.58,0,3,26,43.75,27.12,47.6,0,4.13-27.13,43.71-27.13,47.57,0,3,26,43.75,27.12,47.61,0,4.13-27.13,43.72-27.13,47.57,0,2.94,26,43.75,27.12,47.57,0,4.16-27.13,43.75-28.2,47.61-1.07" transform="translate(386.03 314.63)"/><path class="cls-5" d="M-385-54.05c2.94,26,43.75,26,47.58-1.1,4.15-27.13,43.75-27.13,47.6,0,3,26,43.75,27.13,47.57,0,4.17-27.13,43.75-27.13,47.59,0,3,26,43.77,27.13,47.6,0,4.16-27.13,43.75-27.13,47.61,0,2.93,26,43.74,27.13,47.57,0,4.13-27.13,43.75-27.13,47.57,0,3,26,43.75,27.13,47.6,0,4.13-27.13,43.75-27.13,47.58,0,3,26,43.75,27.13,47.6,0,4.13-27.13,43.74-27.13,47.57,0,3,26,43.75,27.13,47.61,0,4.13-27.13,43.75-27.13,47.57,0,3,26,43.74,27.13,47.57,0,4.15-27.13,43.75-27.13,47.6,0,2.94,26,43.75,27.13,47.57,0,4.16-27.13,43.75-27.13,47.61,0,2.94,26,43.75,27.13,47.57,0,4.16-27.13,43.74-27.13,47.57,0,3,26,43.75,27.13,47.61,0,4.13-27.13,43.74-27.13,47.6,0,2.94,26,43.75,27.13,47.57,0,4.13-27.13,43.75-27.13,47.58,0,3,26,43.74,27.13,47.6,0,4.12-27.13,43.75-27.13,47.58,0,3,26,43.75,27.13,47.6,0,4.13-27.13,43.71-27.13,47.57,0,3,26,43.75,27.13,47.61,0,4.13-27.13,43.72-27.13,47.57,0,2.94,26,43.75,27.13,47.57,0,4.16-27.13,43.75-28.2,47.61-1.07" transform="translate(386.03 314.63)"/><path class="cls-5" d="M-385,15.84c2.94,26,43.75,26,47.58-1.11,4.15-27.08,43.75-27.08,47.6,0,3,26,43.75,27.14,47.57,0,4.17-27.08,43.75-27.08,47.59,0,3,26,43.77,27.14,47.6,0,4.16-27.08,43.75-27.08,47.61,0,2.93,26,43.74,27.14,47.57,0,4.13-27.08,43.75-27.08,47.57,0,3,26,43.75,27.14,47.6,0,4.13-27.08,43.75-27.08,47.58,0,3,26,43.75,27.14,47.6,0,4.13-27.08,43.74-27.08,47.57,0,3,26,43.75,27.14,47.61,0,4.13-27.08,43.75-27.08,47.57,0,3,26,43.74,27.14,47.57,0,4.15-27.08,43.75-27.08,47.6,0,2.94,26,43.75,27.14,47.57,0,4.16-27.08,43.75-27.08,47.61,0,2.94,26,43.75,27.14,47.57,0,4.16-27.08,43.74-27.08,47.57,0,3,26,43.75,27.14,47.61,0,4.13-27.08,43.74-27.08,47.6,0,2.94,26,43.75,27.14,47.57,0,4.13-27.08,43.75-27.08,47.58,0,3,26,43.74,27.14,47.6,0,4.12-27.08,43.75-27.08,47.58,0,3,26,43.75,27.14,47.6,0,4.13-27.08,43.71-27.08,47.57,0,3,26,43.75,27.14,47.61,0,4.13-27.08,43.72-27.08,47.57,0,2.94,26,43.75,27.14,47.57,0,4.16-27.08,43.75-28.18,47.61-1.07" transform="translate(386.03 314.63)"/><path class="cls-5" d="M-385,85.74c2.94,26.05,43.75,26.05,47.58-1.08,4.15-27.13,43.75-27.13,47.6,0,3,26,43.75,27.13,47.57,0,4.17-27.13,43.75-27.13,47.59,0,3,26,43.77,27.13,47.6,0,4.16-27.13,43.75-27.13,47.61,0,2.93,26,43.74,27.13,47.57,0,4.13-27.13,43.75-27.13,47.57,0,3,26,43.75,27.13,47.6,0,4.13-27.13,43.75-27.13,47.58,0,3,26,43.75,27.13,47.6,0,4.13-27.13,43.74-27.13,47.57,0,3,26,43.75,27.13,47.61,0,4.13-27.13,43.75-27.13,47.57,0,3,26,43.74,27.13,47.57,0,4.15-27.13,43.75-27.13,47.6,0,2.94,26,43.75,27.13,47.57,0,4.16-27.13,43.75-27.13,47.61,0,2.94,26,43.75,27.13,47.57,0,4.16-27.13,43.74-27.13,47.57,0,3,26,43.75,27.13,47.61,0,4.13-27.13,43.74-27.13,47.6,0,2.94,26,43.75,27.13,47.57,0,4.13-27.13,43.75-27.13,47.58,0,3,26,43.74,27.13,47.6,0,4.12-27.13,43.75-27.13,47.58,0,3,26,43.75,27.13,47.6,0,4.13-27.13,43.71-27.13,47.57,0,3,26,43.75,27.13,47.61,0,4.13-27.13,43.72-27.13,47.57,0,2.94,26,43.75,27.13,47.57,0,4.16-27.13,43.75-28.19,47.61-1.09" transform="translate(386.03 314.63)"/><path class="cls-5" d="M-385,155.66c2.94,26,43.75,26,47.58-1.1,4.15-27.13,43.75-27.13,47.6,0,3,26,43.75,27.13,47.57,0,4.17-27.13,43.75-27.13,47.59,0,3,26,43.77,27.13,47.6,0,4.16-27.13,43.75-27.13,47.61,0,2.93,26,43.74,27.13,47.57,0,4.13-27.13,43.75-27.13,47.57,0,3,26,43.75,27.13,47.6,0,4.13-27.13,43.75-27.13,47.58,0,3,26,43.75,27.13,47.6,0,4.13-27.13,43.74-27.13,47.57,0,3,26,43.75,27.13,47.61,0,4.13-27.13,43.75-27.13,47.57,0,3,26,43.74,27.13,47.57,0,4.15-27.13,43.75-27.13,47.6,0,2.94,26,43.75,27.13,47.57,0,4.16-27.13,43.75-27.13,47.61,0,2.94,26,43.75,27.13,47.57,0,4.16-27.13,43.74-27.13,47.57,0,3,26,43.75,27.13,47.61,0,4.13-27.13,43.74-27.13,47.6,0,2.94,26,43.75,27.13,47.57,0,4.13-27.13,43.75-27.13,47.58,0,3,26,43.74,27.13,47.6,0,4.12-27.13,43.75-27.13,47.58,0,3,26,43.75,27.13,47.6,0,4.13-27.13,43.71-27.13,47.57,0,3,26,43.75,27.13,47.61,0,4.13-27.13,43.72-27.13,47.57,0,2.94,26,43.75,27.13,47.57,0,4.16-27.13,43.75-28.19,47.61-1.07" transform="translate(386.03 314.63)"/><path class="cls-5" d="M-385,225.55c2.94,26.06,43.75,26.06,47.58-1.07,4.15-27.13,43.75-27.13,47.6,0,3,26,43.75,27.13,47.57,0,4.17-27.13,43.75-27.13,47.59,0,3,26,43.77,27.13,47.6,0,4.16-27.13,43.75-27.13,47.61,0,2.93,26,43.74,27.13,47.57,0,4.13-27.13,43.75-27.13,47.57,0,3,26,43.75,27.13,47.6,0,4.13-27.13,43.75-27.13,47.58,0,3,26,43.75,27.13,47.6,0,4.13-27.13,43.74-27.13,47.57,0,3,26,43.75,27.13,47.61,0,4.13-27.13,43.75-27.13,47.57,0,3,26,43.74,27.13,47.57,0,4.15-27.13,43.75-27.13,47.6,0,2.94,26,43.75,27.13,47.57,0,4.16-27.13,43.75-27.13,47.61,0,2.94,26,43.75,27.13,47.57,0,4.16-27.13,43.74-27.13,47.57,0,3,26,43.75,27.13,47.61,0,4.13-27.13,43.74-27.13,47.6,0,2.94,26,43.75,27.13,47.57,0,4.13-27.13,43.75-27.13,47.58,0,3,26,43.74,27.13,47.6,0,4.12-27.13,43.75-27.13,47.58,0,3,26,43.75,27.13,47.6,0,4.13-27.13,43.71-27.13,47.57,0,3,26,43.75,27.13,47.61,0,4.13-27.13,43.72-27.13,47.57,0,2.94,26,43.75,27.13,47.57,0,4.16-27.13,43.75-28.19,47.61-1.1" transform="translate(386.03 314.63)"/><path class="cls-5" d="M-385,295.47c2.94,26,43.75,26,47.58-1.09,4.15-27.09,43.75-27.09,47.6,0,3,26.06,43.75,27.13,47.57,0,4.17-27.09,43.75-27.09,47.59,0,3,26.06,43.77,27.13,47.6,0,4.16-27.09,43.75-27.09,47.61,0,2.93,26.06,43.74,27.13,47.57,0,4.13-27.09,43.75-27.09,47.57,0,3,26.06,43.75,27.13,47.6,0,4.13-27.09,43.75-27.09,47.58,0,3,26.06,43.75,27.13,47.6,0,4.13-27.09,43.74-27.09,47.57,0,3,26.06,43.75,27.13,47.61,0,4.13-27.09,43.75-27.09,47.57,0,3,26.06,43.74,27.13,47.57,0,4.15-27.09,43.75-27.09,47.6,0,2.94,26.06,43.75,27.13,47.57,0,4.16-27.09,43.75-27.09,47.61,0,2.94,26.06,43.75,27.13,47.57,0,4.16-27.09,43.74-27.09,47.57,0,3,26.06,43.75,27.13,47.61,0,4.13-27.09,43.74-27.09,47.6,0,2.94,26.06,43.75,27.13,47.57,0,4.13-27.09,43.75-27.09,47.58,0,3,26.06,43.74,27.13,47.6,0,4.12-27.09,43.75-27.09,47.58,0,3,26.06,43.75,27.13,47.6,0,4.13-27.09,43.71-27.09,47.57,0,3,26.06,43.75,27.13,47.61,0,4.13-27.09,43.72-27.09,47.57,0,2.94,26.06,43.75,27.13,47.57,0,4.16-27.09,43.75-28.2,47.61-1.07" transform="translate(386.03 314.63)"/><path class="cls-5" d="M-385,365.37c2.94,26.06,43.75,26.06,47.58-1.07,4.15-27.13,43.75-27.13,47.6,0,3,26,43.75,27.13,47.57,0,4.17-27.13,43.75-27.13,47.59,0,3,26,43.77,27.13,47.6,0,4.16-27.13,43.75-27.13,47.61,0,2.93,26,43.74,27.13,47.57,0,4.13-27.13,43.75-27.13,47.57,0,3,26,43.75,27.13,47.6,0,4.13-27.13,43.75-27.13,47.58,0,3,26,43.75,27.13,47.6,0,4.13-27.13,43.74-27.13,47.57,0,3,26,43.75,27.13,47.61,0,4.13-27.13,43.75-27.13,47.57,0,3,26,43.74,27.13,47.57,0,4.15-27.13,43.75-27.13,47.6,0,2.94,26,43.75,27.13,47.57,0,4.16-27.13,43.75-27.13,47.61,0,2.94,26,43.75,27.13,47.57,0,4.16-27.13,43.74-27.13,47.57,0,3,26,43.75,27.13,47.61,0,4.13-27.13,43.74-27.13,47.6,0,2.94,26,43.75,27.13,47.57,0,4.13-27.13,43.75-27.13,47.58,0,3,26,43.74,27.13,47.6,0,4.12-27.13,43.75-27.13,47.58,0,3,26,43.75,27.13,47.6,0,4.13-27.13,43.71-27.13,47.57,0,3,26,43.75,27.13,47.61,0,4.13-27.13,43.72-27.13,47.57,0,2.94,26,43.75,27.13,47.57,0,4.16-27.13,43.75-28.21,47.61-1.07" transform="translate(386.03 314.63)"/><path class="cls-5" d="M-385,435.29c2.94,26,43.75,26,47.58-1.1,4.15-27.09,43.75-27.09,47.6,0,3,26,43.75,27.13,47.57,0,4.17-27.09,43.75-27.09,47.59,0,3,26,43.77,27.13,47.6,0,4.16-27.09,43.75-27.09,47.61,0,2.93,26,43.74,27.13,47.57,0,4.13-27.09,43.75-27.09,47.57,0,3,26,43.75,27.13,47.6,0,4.13-27.09,43.75-27.09,47.58,0,3,26,43.75,27.13,47.6,0,4.13-27.09,43.74-27.09,47.57,0,3,26,43.75,27.13,47.61,0,4.13-27.09,43.75-27.09,47.57,0,3,26,43.74,27.13,47.57,0,4.15-27.09,43.75-27.09,47.6,0,2.94,26,43.75,27.13,47.57,0,4.16-27.09,43.75-27.09,47.61,0,2.94,26,43.75,27.13,47.57,0,4.16-27.09,43.74-27.09,47.57,0,3,26,43.75,27.13,47.61,0,4.13-27.09,43.74-27.09,47.6,0,2.94,26,43.75,27.13,47.57,0,4.13-27.09,43.75-27.09,47.58,0,3,26,43.74,27.13,47.6,0,4.12-27.09,43.75-27.09,47.58,0,3,26,43.75,27.13,47.6,0,4.13-27.09,43.71-27.09,47.57,0,3,26,43.75,27.13,47.61,0,4.13-27.09,43.72-27.09,47.57,0,2.94,26,43.75,27.13,47.57,0,4.16-27.09,43.75-28.19,47.61-1.07" transform="translate(386.03 314.63)"/></g></svg>